<mxfile host="www.draw.io" modified="2019-12-27T13:21:20.823Z" agent="Mozilla/5.0 (Windows NT 10.0; Win64; x64) AppleWebKit/537.36 (KHTML, like Gecko) Chrome/79.0.3945.88 Safari/537.36" etag="bmvDMg1iUlh_SOZ4qDPA" version="12.4.5" type="github">
  <diagram id="C5RBs43oDa-KdzZeNtuy" name="Page-1">
    <mxGraphModel dx="981" dy="514" grid="1" gridSize="10" guides="1" tooltips="1" connect="1" arrows="1" fold="1" page="1" pageScale="1" pageWidth="827" pageHeight="1169" math="0" shadow="0">
      <root>
        <mxCell id="WIyWlLk6GJQsqaUBKTNV-0"/>
        <mxCell id="WIyWlLk6GJQsqaUBKTNV-1" parent="WIyWlLk6GJQsqaUBKTNV-0"/>
        <mxCell id="WIyWlLk6GJQsqaUBKTNV-2" value="" style="rounded=0;html=1;jettySize=auto;orthogonalLoop=1;fontSize=11;endArrow=block;endFill=0;endSize=8;strokeWidth=1;shadow=0;labelBackgroundColor=none;edgeStyle=orthogonalEdgeStyle;exitX=0.5;exitY=1;exitDx=0;exitDy=0;entryX=0.5;entryY=0;entryDx=0;entryDy=0;" parent="WIyWlLk6GJQsqaUBKTNV-1" source="qc2qwKIi5DDF6R1bUCEj-6" target="WIyWlLk6GJQsqaUBKTNV-7" edge="1">
          <mxGeometry relative="1" as="geometry">
            <mxPoint x="220.37931034482767" y="170.30344827586202" as="targetPoint"/>
          </mxGeometry>
        </mxCell>
        <mxCell id="qc2qwKIi5DDF6R1bUCEj-1" value="" style="edgeStyle=orthogonalEdgeStyle;rounded=0;orthogonalLoop=1;jettySize=auto;html=1;" edge="1" parent="WIyWlLk6GJQsqaUBKTNV-1" source="WIyWlLk6GJQsqaUBKTNV-3" target="qc2qwKIi5DDF6R1bUCEj-0">
          <mxGeometry relative="1" as="geometry"/>
        </mxCell>
        <mxCell id="WIyWlLk6GJQsqaUBKTNV-3" value="getIcon" style="rounded=1;whiteSpace=wrap;html=1;fontSize=12;glass=0;strokeWidth=1;shadow=0;" parent="WIyWlLk6GJQsqaUBKTNV-1" vertex="1">
          <mxGeometry x="50" y="50" width="120" height="40" as="geometry"/>
        </mxCell>
        <mxCell id="qc2qwKIi5DDF6R1bUCEj-3" value="" style="edgeStyle=orthogonalEdgeStyle;rounded=0;orthogonalLoop=1;jettySize=auto;html=1;" edge="1" parent="WIyWlLk6GJQsqaUBKTNV-1" source="qc2qwKIi5DDF6R1bUCEj-0" target="qc2qwKIi5DDF6R1bUCEj-2">
          <mxGeometry relative="1" as="geometry"/>
        </mxCell>
        <mxCell id="qc2qwKIi5DDF6R1bUCEj-0" value="getFancyDrawableRoot" style="rounded=1;whiteSpace=wrap;html=1;fontSize=12;glass=0;strokeWidth=1;shadow=0;" vertex="1" parent="WIyWlLk6GJQsqaUBKTNV-1">
          <mxGeometry x="220" y="50" width="140" height="40" as="geometry"/>
        </mxCell>
        <mxCell id="qc2qwKIi5DDF6R1bUCEj-5" value="" style="edgeStyle=orthogonalEdgeStyle;rounded=0;orthogonalLoop=1;jettySize=auto;html=1;" edge="1" parent="WIyWlLk6GJQsqaUBKTNV-1" source="qc2qwKIi5DDF6R1bUCEj-2" target="qc2qwKIi5DDF6R1bUCEj-4">
          <mxGeometry relative="1" as="geometry"/>
        </mxCell>
        <mxCell id="qc2qwKIi5DDF6R1bUCEj-2" value="getFancyDrawableRootInternal" style="rounded=1;whiteSpace=wrap;html=1;fontSize=12;glass=0;strokeWidth=1;shadow=0;" vertex="1" parent="WIyWlLk6GJQsqaUBKTNV-1">
          <mxGeometry x="410" y="50" width="180" height="40" as="geometry"/>
        </mxCell>
        <mxCell id="qc2qwKIi5DDF6R1bUCEj-7" value="" style="edgeStyle=orthogonalEdgeStyle;rounded=0;orthogonalLoop=1;jettySize=auto;html=1;" edge="1" parent="WIyWlLk6GJQsqaUBKTNV-1" source="qc2qwKIi5DDF6R1bUCEj-4" target="qc2qwKIi5DDF6R1bUCEj-6">
          <mxGeometry relative="1" as="geometry"/>
        </mxCell>
        <mxCell id="qc2qwKIi5DDF6R1bUCEj-4" value="创建&lt;br&gt;FancyDrawableResourceLoader" style="rounded=1;whiteSpace=wrap;html=1;fontSize=12;glass=0;strokeWidth=1;shadow=0;" vertex="1" parent="WIyWlLk6GJQsqaUBKTNV-1">
          <mxGeometry x="640" y="50" width="180" height="40" as="geometry"/>
        </mxCell>
        <mxCell id="qc2qwKIi5DDF6R1bUCEj-6" value="读取config manifest&lt;br&gt;getManifestRoot" style="rounded=1;whiteSpace=wrap;html=1;fontSize=12;glass=0;strokeWidth=1;shadow=0;" vertex="1" parent="WIyWlLk6GJQsqaUBKTNV-1">
          <mxGeometry x="870" y="50" width="180" height="40" as="geometry"/>
        </mxCell>
        <mxCell id="qc2qwKIi5DDF6R1bUCEj-11" value="" style="edgeStyle=orthogonalEdgeStyle;rounded=0;orthogonalLoop=1;jettySize=auto;html=1;" edge="1" parent="WIyWlLk6GJQsqaUBKTNV-1" source="WIyWlLk6GJQsqaUBKTNV-7" target="qc2qwKIi5DDF6R1bUCEj-10">
          <mxGeometry relative="1" as="geometry"/>
        </mxCell>
        <mxCell id="WIyWlLk6GJQsqaUBKTNV-7" value="创建&lt;br&gt;FancyDrawableRoot" style="rounded=1;whiteSpace=wrap;html=1;fontSize=12;glass=0;strokeWidth=1;shadow=0;" parent="WIyWlLk6GJQsqaUBKTNV-1" vertex="1">
          <mxGeometry x="50" y="170" width="120" height="40" as="geometry"/>
        </mxCell>
        <mxCell id="qc2qwKIi5DDF6R1bUCEj-13" value="" style="edgeStyle=orthogonalEdgeStyle;rounded=0;orthogonalLoop=1;jettySize=auto;html=1;" edge="1" parent="WIyWlLk6GJQsqaUBKTNV-1" source="qc2qwKIi5DDF6R1bUCEj-10" target="qc2qwKIi5DDF6R1bUCEj-12">
          <mxGeometry relative="1" as="geometry"/>
        </mxCell>
        <mxCell id="qc2qwKIi5DDF6R1bUCEj-10" value="构造函数&lt;br&gt;init一些关键变量" style="rounded=1;whiteSpace=wrap;html=1;fontSize=12;glass=0;strokeWidth=1;shadow=0;" vertex="1" parent="WIyWlLk6GJQsqaUBKTNV-1">
          <mxGeometry x="230" y="170" width="120" height="40" as="geometry"/>
        </mxCell>
        <mxCell id="qc2qwKIi5DDF6R1bUCEj-15" value="" style="edgeStyle=orthogonalEdgeStyle;rounded=0;orthogonalLoop=1;jettySize=auto;html=1;" edge="1" parent="WIyWlLk6GJQsqaUBKTNV-1" source="qc2qwKIi5DDF6R1bUCEj-12" target="qc2qwKIi5DDF6R1bUCEj-14">
          <mxGeometry relative="1" as="geometry"/>
        </mxCell>
        <mxCell id="qc2qwKIi5DDF6R1bUCEj-12" value="逐层解析config&lt;br&gt;loadElements()" style="rounded=1;whiteSpace=wrap;html=1;fontSize=12;glass=0;strokeWidth=1;shadow=0;" vertex="1" parent="WIyWlLk6GJQsqaUBKTNV-1">
          <mxGeometry x="430" y="170" width="120" height="40" as="geometry"/>
        </mxCell>
        <mxCell id="qc2qwKIi5DDF6R1bUCEj-17" value="" style="edgeStyle=orthogonalEdgeStyle;rounded=0;orthogonalLoop=1;jettySize=auto;html=1;" edge="1" parent="WIyWlLk6GJQsqaUBKTNV-1" source="qc2qwKIi5DDF6R1bUCEj-14" target="qc2qwKIi5DDF6R1bUCEj-16">
          <mxGeometry relative="1" as="geometry"/>
        </mxCell>
        <mxCell id="qc2qwKIi5DDF6R1bUCEj-14" value="初始化各Manager&lt;br&gt;initRoot()" style="rounded=1;whiteSpace=wrap;html=1;fontSize=12;glass=0;strokeWidth=1;shadow=0;" vertex="1" parent="WIyWlLk6GJQsqaUBKTNV-1">
          <mxGeometry x="630" y="170" width="120" height="40" as="geometry"/>
        </mxCell>
        <mxCell id="qc2qwKIi5DDF6R1bUCEj-19" value="" style="edgeStyle=orthogonalEdgeStyle;rounded=0;orthogonalLoop=1;jettySize=auto;html=1;" edge="1" parent="WIyWlLk6GJQsqaUBKTNV-1" source="qc2qwKIi5DDF6R1bUCEj-16" target="qc2qwKIi5DDF6R1bUCEj-18">
          <mxGeometry relative="1" as="geometry">
            <Array as="points">
              <mxPoint x="890" y="260"/>
              <mxPoint x="110" y="260"/>
            </Array>
          </mxGeometry>
        </mxCell>
        <mxCell id="qc2qwKIi5DDF6R1bUCEj-16" value="mCOntroller&lt;br&gt;.addSelfToThread()" style="rounded=1;whiteSpace=wrap;html=1;fontSize=12;glass=0;strokeWidth=1;shadow=0;" vertex="1" parent="WIyWlLk6GJQsqaUBKTNV-1">
          <mxGeometry x="830" y="170" width="120" height="40" as="geometry"/>
        </mxCell>
        <mxCell id="qc2qwKIi5DDF6R1bUCEj-21" value="" style="edgeStyle=orthogonalEdgeStyle;rounded=0;orthogonalLoop=1;jettySize=auto;html=1;" edge="1" parent="WIyWlLk6GJQsqaUBKTNV-1" source="qc2qwKIi5DDF6R1bUCEj-18" target="qc2qwKIi5DDF6R1bUCEj-20">
          <mxGeometry relative="1" as="geometry"/>
        </mxCell>
        <mxCell id="qc2qwKIi5DDF6R1bUCEj-18" value="tick()" style="rounded=1;whiteSpace=wrap;html=1;fontSize=12;glass=0;strokeWidth=1;shadow=0;" vertex="1" parent="WIyWlLk6GJQsqaUBKTNV-1">
          <mxGeometry x="50" y="310" width="120" height="40" as="geometry"/>
        </mxCell>
        <mxCell id="qc2qwKIi5DDF6R1bUCEj-23" value="" style="edgeStyle=orthogonalEdgeStyle;rounded=0;orthogonalLoop=1;jettySize=auto;html=1;" edge="1" parent="WIyWlLk6GJQsqaUBKTNV-1" source="qc2qwKIi5DDF6R1bUCEj-20" target="qc2qwKIi5DDF6R1bUCEj-22">
          <mxGeometry relative="1" as="geometry"/>
        </mxCell>
        <mxCell id="qc2qwKIi5DDF6R1bUCEj-20" value="创建FancyDrawable对象&lt;br&gt;createDrawable()" style="rounded=1;whiteSpace=wrap;html=1;fontSize=12;glass=0;strokeWidth=1;shadow=0;" vertex="1" parent="WIyWlLk6GJQsqaUBKTNV-1">
          <mxGeometry x="250" y="310" width="140" height="40" as="geometry"/>
        </mxCell>
        <mxCell id="qc2qwKIi5DDF6R1bUCEj-25" value="" style="edgeStyle=orthogonalEdgeStyle;rounded=0;orthogonalLoop=1;jettySize=auto;html=1;" edge="1" parent="WIyWlLk6GJQsqaUBKTNV-1" source="qc2qwKIi5DDF6R1bUCEj-22" target="qc2qwKIi5DDF6R1bUCEj-24">
          <mxGeometry relative="1" as="geometry"/>
        </mxCell>
        <mxCell id="qc2qwKIi5DDF6R1bUCEj-22" value="设置drawable宽高" style="rounded=1;whiteSpace=wrap;html=1;fontSize=12;glass=0;strokeWidth=1;shadow=0;" vertex="1" parent="WIyWlLk6GJQsqaUBKTNV-1">
          <mxGeometry x="450" y="310" width="120" height="40" as="geometry"/>
        </mxCell>
        <mxCell id="qc2qwKIi5DDF6R1bUCEj-24" value="把drawable加入RenderController的RenderList" style="rounded=1;whiteSpace=wrap;html=1;fontSize=12;glass=0;strokeWidth=1;shadow=0;" vertex="1" parent="WIyWlLk6GJQsqaUBKTNV-1">
          <mxGeometry x="650" y="310" width="120" height="40" as="geometry"/>
        </mxCell>
      </root>
    </mxGraphModel>
  </diagram>
</mxfile>
